<mxfile host="app.diagrams.net" modified="2023-06-01T08:25:36.621Z" agent="5.0 (Macintosh)" etag="8zeFqioehdwCVIt2zena" version="20.8.11" type="github">
  <diagram name="Page-1" id="qzUSwUFRgPcWngRlXeXx">
    <mxGraphModel dx="1785" dy="797" grid="1" gridSize="10" guides="1" tooltips="1" connect="1" arrows="1" fold="1" page="1" pageScale="1" pageWidth="827" pageHeight="1169" math="0" shadow="0">
      <root>
        <mxCell id="0" />
        <mxCell id="1" parent="0" />
        <mxCell id="aLbdxtJdZIABuGEaoBWG-29" value="etc" style="shape=note;whiteSpace=wrap;html=1;backgroundOutline=1;darkOpacity=0.05;fillColor=#dae8fc;strokeColor=#6c8ebf;" vertex="1" parent="1">
          <mxGeometry x="250" y="400" width="130" height="70" as="geometry" />
        </mxCell>
        <mxCell id="aLbdxtJdZIABuGEaoBWG-1" value="&lt;div&gt;controleur&lt;/div&gt;" style="aspect=fixed;html=1;points=[];align=center;image;fontSize=12;image=img/lib/azure2/general/Folder_Blank.svg;" vertex="1" parent="1">
          <mxGeometry x="-40" y="470" width="69" height="56.00000000000001" as="geometry" />
        </mxCell>
        <mxCell id="aLbdxtJdZIABuGEaoBWG-5" value="&lt;div&gt;vue&lt;/div&gt;" style="aspect=fixed;html=1;points=[];align=center;image;fontSize=12;image=img/lib/azure2/general/Folder_Blank.svg;" vertex="1" parent="1">
          <mxGeometry x="-40" y="340" width="69" height="56.00000000000001" as="geometry" />
        </mxCell>
        <mxCell id="aLbdxtJdZIABuGEaoBWG-24" style="edgeStyle=orthogonalEdgeStyle;rounded=0;orthogonalLoop=1;jettySize=auto;html=1;" edge="1" parent="1" source="aLbdxtJdZIABuGEaoBWG-8" target="aLbdxtJdZIABuGEaoBWG-20">
          <mxGeometry relative="1" as="geometry" />
        </mxCell>
        <mxCell id="aLbdxtJdZIABuGEaoBWG-26" style="edgeStyle=orthogonalEdgeStyle;rounded=0;orthogonalLoop=1;jettySize=auto;html=1;" edge="1" parent="1" source="aLbdxtJdZIABuGEaoBWG-8" target="aLbdxtJdZIABuGEaoBWG-25">
          <mxGeometry relative="1" as="geometry" />
        </mxCell>
        <mxCell id="aLbdxtJdZIABuGEaoBWG-8" value="&lt;div&gt;modele&lt;/div&gt;" style="aspect=fixed;html=1;points=[];align=center;image;fontSize=12;image=img/lib/azure2/general/Folder_Blank.svg;" vertex="1" parent="1">
          <mxGeometry x="-40" y="220" width="69" height="56.00000000000001" as="geometry" />
        </mxCell>
        <mxCell id="aLbdxtJdZIABuGEaoBWG-20" value="BDD" style="shape=note;whiteSpace=wrap;html=1;backgroundOutline=1;darkOpacity=0.05;fillColor=#dae8fc;strokeColor=#6c8ebf;" vertex="1" parent="1">
          <mxGeometry x="120" y="160" width="130" height="70" as="geometry" />
        </mxCell>
        <mxCell id="aLbdxtJdZIABuGEaoBWG-22" value="&lt;div&gt;Objets métiers, &lt;br&gt;&lt;/div&gt;et traitement des demandes utilisateur (appelle le modèle)" style="rounded=0;whiteSpace=wrap;html=1;" vertex="1" parent="1">
          <mxGeometry x="-210" y="463" width="140" height="70" as="geometry" />
        </mxCell>
        <mxCell id="aLbdxtJdZIABuGEaoBWG-23" value="Classe gérant la connexion / déconnexion à la base de données, la configuration du fichier config.properties, " style="rounded=0;whiteSpace=wrap;html=1;" vertex="1" parent="1">
          <mxGeometry x="280" y="160" width="140" height="70" as="geometry" />
        </mxCell>
        <mxCell id="aLbdxtJdZIABuGEaoBWG-25" value="BDD" style="shape=note;whiteSpace=wrap;html=1;backgroundOutline=1;darkOpacity=0.05;fillColor=#dae8fc;strokeColor=#6c8ebf;" vertex="1" parent="1">
          <mxGeometry x="120" y="250" width="130" height="70" as="geometry" />
        </mxCell>
        <mxCell id="aLbdxtJdZIABuGEaoBWG-28" value="Trajet" style="shape=note;whiteSpace=wrap;html=1;backgroundOutline=1;darkOpacity=0.05;fillColor=#dae8fc;strokeColor=#6c8ebf;" vertex="1" parent="1">
          <mxGeometry x="190" y="430" width="130" height="70" as="geometry" />
        </mxCell>
        <mxCell id="aLbdxtJdZIABuGEaoBWG-27" value="Etudiant" style="shape=note;whiteSpace=wrap;html=1;backgroundOutline=1;darkOpacity=0.05;fillColor=#dae8fc;strokeColor=#6c8ebf;" vertex="1" parent="1">
          <mxGeometry x="130" y="463" width="130" height="70" as="geometry" />
        </mxCell>
        <mxCell id="aLbdxtJdZIABuGEaoBWG-30" value="&lt;div&gt;Objets métiers, &lt;br&gt;&lt;/div&gt;et traitement des demandes utilisateur (appelle le modèle)" style="rounded=0;whiteSpace=wrap;html=1;" vertex="1" parent="1">
          <mxGeometry x="-210" y="333" width="140" height="70" as="geometry" />
        </mxCell>
        <mxCell id="aLbdxtJdZIABuGEaoBWG-31" value="Classes qui représentent la table en question dans la base de&amp;nbsp;données " style="rounded=0;whiteSpace=wrap;html=1;" vertex="1" parent="1">
          <mxGeometry x="400" y="456" width="140" height="70" as="geometry" />
        </mxCell>
      </root>
    </mxGraphModel>
  </diagram>
</mxfile>
